<?xml version="1.0" encoding="UTF-8" standalone="no"?>
<svg width="391px" height="246px" viewBox="0 0 391 246" version="1.1" xmlns="http://www.w3.org/2000/svg" xmlns:xlink="http://www.w3.org/1999/xlink">
    <!-- Generator: Sketch 3.8.3 (29802) - http://www.bohemiancoding.com/sketch -->
    <title>gsads-logo</title>
    <desc>Created with Sketch.</desc>
    <defs></defs>
    <g id="Page-1" stroke="none" stroke-width="1" fill="none" fill-rule="evenodd">
        <g id="usds-logo-ondark" transform="translate(-18.000000, 0.000000)">
            <path d="M404.986,32.628 L20.554,32.628 C19.472,32.628 18.634,33.697 18.804,34.885 C21.3,52.073 36.076,62.16 45.699,66.253 L379.844,66.253 C389.468,62.16 404.242,52.073 406.738,34.885 C406.912,33.697 406.07,32.628 404.986,32.628" id="Fill-25" fill="#D7C02E"></path>
            <path d="M77.65,91.993 L347.892,91.993 C355.367,89.347 368.323,83.179 373.988,70.541 L51.556,70.541 C57.221,83.179 70.175,89.347 77.65,91.993" id="Fill-26" fill="#D7C02E"></path>
            <path d="M111.377,113.457 C111.475,113.485 119.507,113.494 119.611,113.494 C122.208,113.504 158.323,113.629 212.772,113.686 C267.221,113.629 303.334,113.504 305.932,113.494 C306.037,113.494 314.068,113.485 314.167,113.457 C316.244,112.952 332.409,112.161 342.393,96.286 L83.153,96.286 C93.133,112.161 109.301,112.952 111.377,113.457" id="Fill-27" fill="#D7C02E"></path>
            <path d="M342.412,30.544 C342.412,87.649 284.369,133.937 212.772,133.937 C141.169,133.937 83.131,87.649 83.131,30.544" id="Fill-28" fill="#A69B44"></path>
            <path d="M151.708,5.878 L151.708,118.786 C151.708,120.149 150.226,121.459 151.157,122.452 C151.157,122.452 184.017,168.43 208.563,186.496 C211.836,188.906 214.085,189.023 217.491,186.496 C241.865,168.43 274.387,122.452 274.387,122.452 C275.317,121.459 273.835,120.149 273.835,118.786 L273.835,5.878 C273.835,2.916 273.436,2.514 270.474,2.514 L155.071,2.514 C152.11,2.514 151.708,2.916 151.708,5.878" id="Fill-29" fill="#FFFFFF"></path>
            <path d="M207.307,23.988 L195.306,25.73 L203.988,34.193 L201.935,46.145 L212.67,40.502 L223.403,46.145 L221.352,34.193 L230.037,25.73 L218.036,23.988 L212.67,13.112 L207.307,23.988 L207.307,23.988 Z M248.961,24.456 L241.562,25.53 L246.915,30.748 L245.651,38.121 L252.269,34.64 L258.888,38.121 L257.622,30.748 L262.979,25.53 L255.577,24.456 L252.269,17.75 L248.961,24.456 L248.961,24.456 Z M169.966,24.456 L162.565,25.53 L167.919,30.748 L166.655,38.121 L173.276,34.64 L179.893,38.121 L178.631,30.748 L183.983,25.53 L176.583,24.456 L173.276,17.75 L169.966,24.456 L169.966,24.456 Z M155.071,0.514 L270.474,0.514 C273.436,0.514 275.835,2.916 275.835,5.878 L275.835,118.786 C275.835,120.149 275.318,121.459 274.387,122.452 C274.387,122.452 264.259,136.772 251.069,152.569 L251.069,60.724 L225.142,60.724 L225.144,180.195 C222.537,182.53 219.973,184.657 217.491,186.496 C214.085,189.023 211.837,188.906 208.563,186.496 C205.923,184.553 203.186,182.285 200.403,179.788 L200.405,60.724 L174.476,60.724 L174.473,152.295 C161.273,136.607 151.157,122.452 151.157,122.452 C150.226,121.459 149.709,120.149 149.709,118.786 L149.709,5.878 C149.709,2.916 152.11,0.514 155.071,0.514 L155.071,0.514 Z" id="Fill-30" fill="#00538E"></path>
        </g>
        <g id="gsa_logo" transform="translate(137.000000, 3.000000)">
            <rect id="Rectangle-path" fill="#00538E" x="0" y="0" width="116.9964" height="117.313618"></rect>
            <path d="M70.7499,86.5417405 C70.7499,94.772916 64.2924,98.2093282 56.844,97.970626 C54.1998,97.8850534 51.6249,97.2157863 48.8196,96.2997099 L49.4559,90.3744885 C51.8301,91.3527176 54.9072,92.412916 57.4839,92.3732824 C60.8499,92.3210382 64.2132,90.757313 64.2132,86.8570076 C64.2132,83.8529618 61.8102,82.3748092 59.4864,81.1975115 C54.3483,78.5889008 48.4389,76.7774656 48.4389,69.4893893 C48.4389,62.5985496 53.9145,59.0045038 60.7014,59.0045038 C63.1683,59.0045038 66.114,59.4341679 69.0705,60.4826565 L68.184,66.3178015 C64.9647,65.0540305 63.558,64.6054504 60.9138,64.6054504 C57.9861,64.6054504 54.9765,65.6350229 54.9765,69.0155878 C54.9765,71.6575267 57.6855,73.0293893 59.6997,74.035542 C65.1582,76.7612519 70.7499,78.9996489 70.7499,86.5417405" id="Shape" fill="#FFFFFF"></path>
            <path d="M40.1049,96.2015267 C37.7361,97.0131145 34.1091,97.970626 28.3221,97.970626 C16.4466,97.970626 8.4978,90.2880153 8.4978,78.3294809 C8.4978,66.7258473 16.9353,59.0036031 28.3752,59.0036031 C33.8076,59.0036031 36.2295,59.810687 39.6621,60.9960916 L39.1455,67.496 C35.9865,65.4296489 33.2973,64.6036489 28.6389,64.6036489 C20.4579,64.6036489 14.9967,70.5288702 15.0354,78.4862137 C15.0741,87.0488702 21.0186,92.3723817 28.3752,92.3723817 C30.5685,92.3723817 32.4324,92.2120458 33.7716,91.8598473 L33.7716,82.1045802 L26.6967,82.1045802 L26.6967,76.6072214 L40.1049,76.6072214 L40.1049,96.2015267" id="Shape" fill="#FFFFFF"></path>
            <polyline id="Shape" fill="#FFFFFF" points="91.8369 58.1776031 100.8567 78.2925496 94.572 78.2925496 91.8369 71.6079847 89.0964 78.2925496 82.8126 78.2925496 91.8369 58.1776031"></polyline>
            <polyline id="Shape" fill="#FFFFFF" points="100.9602 78.5276489 109.3563 97.3085649 102.7584 97.3085649 96.4827 82.7252061 100.9602 78.5276489"></polyline>
            <polyline id="Shape" fill="#FFFFFF" points="82.71 78.5312519 87.1857 82.7270076 83.8791 90.2925191 91.8243 86.1228855 96.3981 89.6484733 80.7543 97.3103664 74.313 97.3103664 82.71 78.5312519"></polyline>
        </g>
        <path d="M15.746,236.432 C18.95,236.432 21.686,235.208 23.27,233.624 L23.27,223.256 L15.062,223.256 L15.062,226.676 L19.526,226.676 L19.526,231.752 C18.77,232.436 17.474,232.796 16.142,232.796 C11.426,232.796 8.942,229.556 8.942,224.192 C8.942,218.9 11.75,215.66 15.926,215.66 C18.122,215.66 19.49,216.56 20.678,217.712 L22.91,215.012 C21.434,213.5 19.13,212.024 15.782,212.024 C9.518,212.024 4.658,216.596 4.658,224.3 C4.658,232.112 9.374,236.432 15.746,236.432 L15.746,236.432 Z M38.366,236.432 C43.658,236.432 46.826,233.264 46.826,229.448 C46.826,226.028 44.846,224.264 42.074,223.076 L38.87,221.744 C36.926,220.952 35.126,220.268 35.126,218.432 C35.126,216.704 36.602,215.66 38.834,215.66 C40.85,215.66 42.434,216.416 43.946,217.676 L46.07,215.012 C44.234,213.176 41.57,212.024 38.834,212.024 C34.226,212.024 30.914,214.904 30.914,218.648 C30.914,222.104 33.362,223.94 35.666,224.912 L38.906,226.316 C41.03,227.216 42.542,227.828 42.542,229.772 C42.542,231.608 41.102,232.796 38.438,232.796 C36.278,232.796 34.01,231.716 32.318,230.132 L29.87,232.976 C32.102,235.172 35.198,236.432 38.366,236.432 L38.366,236.432 Z M58.934,223.472 C59.69,220.988 60.374,218.324 61.022,215.696 L61.166,215.696 C61.85,218.288 62.534,220.988 63.29,223.472 L64.118,226.352 L58.106,226.352 L58.934,223.472 Z M51.05,236 L55.298,236 L57.134,229.628 L65.054,229.628 L66.89,236 L71.282,236 L63.614,212.456 L58.718,212.456 L51.05,236 Z M87.398,236 L93.914,236 C100.898,236 105.146,231.932 105.146,224.12 C105.146,216.344 100.898,212.456 93.698,212.456 L87.398,212.456 L87.398,236 Z M91.574,232.616 L91.574,215.84 L93.41,215.84 C98.162,215.84 100.862,218.36 100.862,224.12 C100.862,229.916 98.162,232.616 93.41,232.616 L91.574,232.616 Z M112.898,236 L117.074,236 L117.074,212.456 L112.898,212.456 L112.898,236 Z M135.914,236.432 C139.118,236.432 141.854,235.208 143.438,233.624 L143.438,223.256 L135.23,223.256 L135.23,226.676 L139.694,226.676 L139.694,231.752 C138.938,232.436 137.642,232.796 136.31,232.796 C131.594,232.796 129.11,229.556 129.11,224.192 C129.11,218.9 131.918,215.66 136.094,215.66 C138.29,215.66 139.658,216.56 140.846,217.712 L143.078,215.012 C141.602,213.5 139.298,212.024 135.95,212.024 C129.686,212.024 124.826,216.596 124.826,224.3 C124.826,232.112 129.542,236.432 135.914,236.432 L135.914,236.432 Z M151.658,236 L155.834,236 L155.834,212.456 L151.658,212.456 L151.658,236 Z M169.562,236 L173.738,236 L173.738,215.984 L180.542,215.984 L180.542,212.456 L162.758,212.456 L162.758,215.984 L169.562,215.984 L169.562,236 Z M190.85,223.472 C191.606,220.988 192.29,218.324 192.938,215.696 L193.082,215.696 C193.766,218.288 194.45,220.988 195.206,223.472 L196.034,226.352 L190.022,226.352 L190.85,223.472 Z M182.966,236 L187.214,236 L189.05,229.628 L196.97,229.628 L198.806,236 L203.198,236 L195.53,212.456 L190.634,212.456 L182.966,236 Z M209.114,236 L223.082,236 L223.082,232.472 L213.29,232.472 L213.29,212.456 L209.114,212.456 L209.114,236 Z M247.262,236.432 C252.554,236.432 255.722,233.264 255.722,229.448 C255.722,226.028 253.742,224.264 250.97,223.076 L247.766,221.744 C245.822,220.952 244.022,220.268 244.022,218.432 C244.022,216.704 245.498,215.66 247.73,215.66 C249.746,215.66 251.33,216.416 252.842,217.676 L254.966,215.012 C253.13,213.176 250.466,212.024 247.73,212.024 C243.122,212.024 239.81,214.904 239.81,218.648 C239.81,222.104 242.258,223.94 244.562,224.912 L247.802,226.316 C249.926,227.216 251.438,227.828 251.438,229.772 C251.438,231.608 249.998,232.796 247.334,232.796 C245.174,232.796 242.906,231.716 241.214,230.132 L238.766,232.976 C240.998,235.172 244.094,236.432 247.262,236.432 L247.262,236.432 Z M263.006,236 L277.55,236 L277.55,232.472 L267.182,232.472 L267.182,225.524 L275.642,225.524 L275.642,221.996 L267.182,221.996 L267.182,215.984 L277.19,215.984 L277.19,212.456 L263.006,212.456 L263.006,236 Z M285.374,236 L289.55,236 L289.55,226.784 L293.15,226.784 L298.226,236 L302.906,236 L297.29,226.172 C300.098,225.2 301.97,223.04 301.97,219.44 C301.97,214.184 298.226,212.456 293.33,212.456 L285.374,212.456 L285.374,236 Z M289.55,223.472 L289.55,215.804 L292.898,215.804 C296.102,215.804 297.866,216.74 297.866,219.44 C297.866,222.104 296.102,223.472 292.898,223.472 L289.55,223.472 Z M313.754,236 L318.686,236 L325.994,212.456 L321.71,212.456 L318.434,224.3 C317.714,226.964 317.174,229.268 316.382,231.968 L316.238,231.968 C315.446,229.268 314.906,226.964 314.15,224.3 L310.838,212.456 L306.41,212.456 L313.754,236 Z M331.838,236 L336.014,236 L336.014,212.456 L331.838,212.456 L331.838,236 Z M354.386,236.432 C357.41,236.432 359.894,235.208 361.802,233.012 L359.57,230.384 C358.238,231.824 356.618,232.796 354.53,232.796 C350.57,232.796 348.05,229.556 348.05,224.192 C348.05,218.9 350.786,215.66 354.638,215.66 C356.474,215.66 357.878,216.488 359.102,217.712 L361.334,215.012 C359.858,213.428 357.482,212.024 354.53,212.024 C348.59,212.024 343.766,216.596 343.766,224.3 C343.766,232.112 348.446,236.432 354.386,236.432 L354.386,236.432 Z M368.726,236 L383.27,236 L383.27,232.472 L372.902,232.472 L372.902,225.524 L381.362,225.524 L381.362,221.996 L372.902,221.996 L372.902,215.984 L382.91,215.984 L382.91,212.456 L368.726,212.456 L368.726,236 Z" id="GSADS-text-color-outlines" fill="#A69B44"></path>
    </g>
</svg>